<svg width="372" height="80" fill="none" xmlns="http://www.w3.org/2000/svg"><path fill="#F03181" d="M6.946-43l471.723 83.177-6.946 39.393L0-3.608z"/><path d="M79.4-4.839l1.75-9.927 3.937.694c.67.119 1.196.351 1.576.697.385.343.644.742.777 1.197.138.455.167.906.088 1.352-.096.546-.309.988-.638 1.323a1.916 1.916 0 01-1.191.586l.06-.345c.6.253 1.022.633 1.264 1.14.247.508.32 1.049.219 1.623-.104.589-.308 1.084-.61 1.485a2.47 2.47 0 01-1.19.857c-.484.17-1.053.198-1.706.083L79.4-4.84zm1.958-1.268l2.447.431c.29.051.56.04.81-.035.25-.079.459-.213.625-.401.171-.193.283-.436.335-.73a1.5 1.5 0 00-.046-.748 1.282 1.282 0 00-.415-.591 1.57 1.57 0 00-.758-.333l-2.496-.44-.502 2.847zm.776-4.398l2.233.394c.24.042.461.033.666-.025a1.08 1.08 0 00.52-.328c.141-.16.235-.37.282-.633.06-.344 0-.651-.18-.92-.18-.268-.467-.438-.862-.507l-2.234-.394-.425 2.413zm5.275 7.078l4.88-9.375 2.433.43 1.38 10.478-1.71-.302-1.27-9.407.373.066-4.377 8.412-1.71-.302zm2.123-1.843l.273-1.551 5.212.919-.273 1.55-5.212-.918zm6.989 3.45l4.628-4.401-2.588-5.475 1.985.35 2.276 5.029.792-4.488 1.661.293-.791 4.488 3.859-3.947 1.985.35-4.305 4.26 2.844 5.718-2.047-.361-2.499-5.097-.796 4.516-1.662-.293.796-4.515-4.084 3.935-2.054-.362zM109.964.55l1.75-9.927 1.662.293-.737 4.178 4.701.829.737-4.178 1.655.292-1.751 9.927-1.654-.292.739-4.191-4.702-.83-.739 4.192-1.661-.293zm14.112 2.702c-.993-.175-1.805-.541-2.437-1.098a4.399 4.399 0 01-1.313-2.108c-.24-.843-.269-1.777-.088-2.802.18-1.025.528-1.892 1.041-2.603a4.355 4.355 0 011.954-1.525c.785-.311 1.673-.38 2.666-.205.993.175 1.804.544 2.435 1.105a4.293 4.293 0 011.314 2.101c.245.844.277 1.778.096 2.803-.181 1.025-.53 1.892-1.049 2.602a4.337 4.337 0 01-1.954 1.532c-.784.307-1.673.373-2.665.198zm.276-1.565c.665.122 1.245.073 1.739-.148.498-.22.906-.582 1.222-1.086.321-.502.545-1.117.673-1.843s.126-1.375-.005-1.948a2.735 2.735 0 00-.778-1.431c-.389-.377-.915-.628-1.58-.755-.666-.122-1.245-.073-1.739.148-.494.221-.901.583-1.222 1.086-.316.503-.539 1.118-.667 1.844s-.129 1.377-.003 1.954c.127.572.384 1.046.773 1.423.393.377.922.63 1.587.756zm6.578 2.56l.269-1.523 1.661.293-.268 1.523-1.662-.293zm.438-2.482l1.313-7.445 1.661.293-1.313 7.445-1.661-.293z" fill="#232340"/><path d="M145.382 6.796l1.751-9.927 3.936.694c.671.118 1.196.35 1.576.697.385.343.644.742.777 1.196.138.456.167.907.089 1.352-.097.547-.31.988-.639 1.324a1.915 1.915 0 01-1.191.586l.061-.345c.6.253 1.021.633 1.263 1.14.247.508.32 1.049.219 1.623-.104.588-.307 1.083-.61 1.485-.303.401-.7.687-1.189.856-.485.17-1.054.198-1.707.083l-4.336-.764zm1.958-1.268l2.448.431c.289.051.559.04.809-.035.251-.079.459-.213.625-.401.172-.193.283-.436.335-.73a1.495 1.495 0 00-.046-.748 1.289 1.289 0 00-.414-.592 1.572 1.572 0 00-.759-.333l-2.496-.44-.502 2.848zm.776-4.399l2.233.394c.239.042.461.034.666-.025.204-.058.378-.168.52-.327a1.26 1.26 0 00.282-.633 1.213 1.213 0 00-.179-.92c-.18-.269-.468-.438-.863-.508l-2.234-.393-.425 2.412zm5.275 7.079l4.88-9.375 2.433.429 1.38 10.479-1.71-.302-1.27-9.407.373.065L155.1 8.51l-1.709-.301zm2.123-1.843l.274-1.551 5.211.918-.273 1.552-5.212-.92zm6.989 3.45l4.628-4.402-2.588-5.474 1.985.35 2.277 5.029.791-4.488 1.661.293-.791 4.488 3.859-3.947 1.985.35-4.305 4.259 2.844 5.719-2.047-.361-2.499-5.097-.796 4.516-1.662-.293.797-4.516-4.085 3.936-2.054-.362zm13.443 2.37l1.75-9.927 1.662.293-.737 4.178 4.702.829.736-4.178 1.655.292-1.751 9.927-1.654-.292.739-4.191-4.702-.83-.739 4.192-1.661-.293zm14.112 2.701c-.993-.175-1.805-.54-2.437-1.097a4.397 4.397 0 01-1.312-2.108c-.24-.843-.27-1.777-.089-2.802.18-1.025.528-1.893 1.042-2.603a4.347 4.347 0 011.953-1.525c.785-.312 1.673-.38 2.666-.205.993.175 1.805.543 2.435 1.105a4.286 4.286 0 011.314 2.1c.245.845.277 1.78.096 2.804-.181 1.025-.53 1.892-1.049 2.601a4.332 4.332 0 01-1.954 1.532c-.784.307-1.672.374-2.665.198zm.276-1.564c.665.122 1.245.072 1.739-.149.498-.22.906-.582 1.222-1.085.321-.502.545-1.117.673-1.843s.127-1.376-.005-1.948a2.735 2.735 0 00-.778-1.431c-.388-.377-.915-.628-1.58-.755-.665-.122-1.245-.073-1.739.148-.494.221-.901.583-1.222 1.085-.316.504-.538 1.119-.666 1.845s-.13 1.377-.004 1.954c.127.572.384 1.046.773 1.423.393.377.922.629 1.587.756zm6.578 2.56l.269-1.524 1.661.293-.268 1.524-1.662-.293zm.438-2.482l1.313-7.445 1.661.293-1.313 7.445-1.661-.293z" fill="#fff"/><path d="M211.364 18.43l1.751-9.926 3.936.694c.671.118 1.196.35 1.576.697.385.343.644.742.777 1.196.138.456.167.906.089 1.352-.097.547-.31.988-.639 1.323a1.918 1.918 0 01-1.191.586l.061-.344c.6.252 1.021.632 1.263 1.14.247.507.32 1.049.219 1.623-.104.588-.307 1.083-.61 1.485-.303.401-.7.687-1.189.856-.485.17-1.054.198-1.707.083l-4.336-.764zm1.958-1.268l2.448.432c.289.05.559.04.809-.035.251-.08.459-.213.625-.402.171-.192.283-.436.335-.73a1.496 1.496 0 00-.046-.747 1.289 1.289 0 00-.414-.592 1.572 1.572 0 00-.759-.333l-2.496-.44-.502 2.847zm.776-4.398l2.233.394c.239.042.461.034.666-.025.204-.058.378-.168.52-.328.141-.16.236-.37.282-.632.06-.345.001-.652-.179-.92-.18-.269-.468-.438-.863-.508l-2.234-.394-.425 2.413zm5.275 7.079l4.88-9.375 2.433.429 1.38 10.478-1.71-.301-1.27-9.407.373.065-4.377 8.412-1.709-.301zm2.123-1.844l.274-1.55 5.211.918-.273 1.551-5.212-.919zm6.989 3.45l4.628-4.4-2.588-5.475 1.985.35 2.276 5.028.792-4.487 1.661.293-.791 4.487 3.859-3.947 1.985.35-4.305 4.26 2.844 5.718-2.047-.36-2.499-5.097-.796 4.515-1.662-.293.797-4.515-4.085 3.936-2.054-.363zm13.443 2.37l1.75-9.926 1.662.293-.737 4.177 4.702.83.736-4.178 1.655.292-1.751 9.926-1.654-.291.739-4.192-4.702-.829-.739 4.192-1.661-.293zm14.112 2.702c-.993-.175-1.805-.54-2.437-1.098a4.406 4.406 0 01-1.313-2.107c-.239-.844-.269-1.778-.088-2.802.18-1.025.528-1.893 1.041-2.603a4.355 4.355 0 011.954-1.525c.785-.312 1.673-.38 2.666-.205.993.175 1.804.543 2.435 1.104a4.293 4.293 0 011.314 2.102c.245.843.277 1.778.096 2.803-.181 1.025-.53 1.892-1.049 2.601a4.331 4.331 0 01-1.954 1.532c-.784.307-1.673.373-2.665.198zm.276-1.565c.665.122 1.245.073 1.739-.148.498-.22.906-.582 1.222-1.085.321-.503.545-1.117.673-1.843s.127-1.376-.005-1.949a2.735 2.735 0 00-.778-1.43c-.388-.377-.915-.629-1.58-.755-.665-.122-1.245-.073-1.739.148-.494.22-.901.583-1.222 1.085-.316.504-.538 1.118-.666 1.845-.128.726-.13 1.377-.004 1.954.127.572.384 1.046.773 1.422.393.378.922.63 1.587.756zm6.578 2.56l.269-1.523 1.661.293-.268 1.524-1.662-.293zm.438-2.481l1.313-7.445 1.661.293-1.313 7.445-1.661-.293z" fill="#232340"/><path d="M277.346 30.064l1.751-9.927 3.936.695c.671.118 1.196.35 1.576.697.385.343.644.741.777 1.196.138.455.167.906.089 1.352-.097.547-.31.988-.639 1.323a1.913 1.913 0 01-1.191.586l.061-.345c.6.253 1.021.633 1.263 1.14.247.508.32 1.05.219 1.624-.104.588-.307 1.083-.61 1.484-.303.402-.7.687-1.189.857-.485.17-1.054.198-1.706.083l-4.337-.765zm1.958-1.268l2.448.432c.289.05.559.039.809-.035.251-.08.459-.213.625-.402.172-.192.283-.436.335-.73a1.495 1.495 0 00-.046-.747 1.282 1.282 0 00-.414-.592 1.573 1.573 0 00-.759-.333l-2.496-.44-.502 2.847zm.776-4.398l2.234.394c.238.042.46.034.665-.025a1.08 1.08 0 00.52-.328c.142-.16.236-.37.282-.632a1.213 1.213 0 00-.179-.92c-.18-.27-.468-.438-.863-.508l-2.234-.394-.425 2.413zm5.275 7.079l4.88-9.375 2.434.429 1.379 10.478-1.71-.301-1.269-9.408.372.066-4.376 8.412-1.71-.301zm2.123-1.844l.274-1.55 5.211.918-.273 1.551-5.212-.919zm6.989 3.45l4.629-4.401-2.589-5.475 1.985.35 2.277 5.03.791-4.489 1.661.293-.791 4.488 3.859-3.947 1.985.35-4.305 4.26 2.845 5.718-2.048-.36-2.499-5.097-.796 4.515-1.661-.293.796-4.515-4.085 3.935-2.054-.362zm13.443 2.37l1.751-9.926 1.661.293-.737 4.177 4.702.83.736-4.178 1.655.291-1.751 9.927-1.654-.291.739-4.192-4.701-.829-.739 4.191-1.662-.292zm14.112 2.702c-.993-.175-1.805-.54-2.436-1.098a4.391 4.391 0 01-1.313-2.108c-.24-.843-.27-1.777-.089-2.802.181-1.024.528-1.892 1.042-2.602a4.347 4.347 0 011.953-1.525c.785-.312 1.674-.38 2.666-.205.993.175 1.805.543 2.435 1.104a4.287 4.287 0 011.315 2.101c.244.844.276 1.779.095 2.804-.181 1.024-.53 1.892-1.048 2.601a4.34 4.34 0 01-1.955 1.532c-.784.307-1.672.373-2.665.198zm.276-1.565c.665.122 1.245.073 1.739-.148.498-.22.906-.582 1.222-1.085.321-.503.545-1.117.673-1.843.128-.727.127-1.376-.004-1.949a2.743 2.743 0 00-.779-1.43c-.388-.377-.915-.629-1.58-.756-.665-.122-1.245-.072-1.739.149-.494.22-.901.582-1.222 1.085-.316.503-.538 1.118-.666 1.844s-.129 1.378-.004 1.954c.127.572.385 1.047.773 1.423.393.377.922.63 1.587.756zm6.579 2.56l.268-1.523 1.662.293-.269 1.523-1.661-.292zm.437-2.481l1.313-7.445 1.661.293-1.312 7.445-1.662-.293z" fill="#fff"/><path d="M343.329 41.7l1.75-9.928 3.936.694c.671.119 1.197.351 1.576.698.385.342.644.741.777 1.196.138.455.167.906.089 1.352-.097.546-.309.988-.639 1.323a1.913 1.913 0 01-1.19.586l.06-.345c.6.253 1.021.633 1.264 1.14.246.508.319 1.05.218 1.623-.104.589-.307 1.084-.61 1.485a2.462 2.462 0 01-1.189.857c-.485.17-1.054.198-1.706.083l-4.336-.765zm1.958-1.27l2.447.432c.289.051.559.04.809-.035.251-.079.46-.212.625-.401.172-.193.283-.436.335-.73a1.495 1.495 0 00-.046-.747 1.274 1.274 0 00-.414-.592 1.572 1.572 0 00-.759-.333l-2.495-.44-.502 2.847zm.775-4.397l2.234.393c.239.043.46.034.665-.024a1.08 1.08 0 00.52-.328c.142-.16.236-.37.282-.633a1.213 1.213 0 00-.179-.92c-.18-.268-.468-.438-.863-.507l-2.233-.394-.426 2.413zm5.275 7.078l4.88-9.375 2.434.43 1.379 10.478-1.71-.301-1.269-9.408.372.066-4.376 8.412-1.71-.302zm2.123-1.843l.274-1.551 5.212.919-.274 1.55-5.212-.918zm6.989 3.45l4.629-4.401-2.589-5.475 1.985.35 2.277 5.029.791-4.488 1.661.293-.791 4.488 3.859-3.947 1.986.35-4.305 4.26 2.844 5.718-2.048-.361-2.499-5.096-.796 4.515-1.661-.293.796-4.515-4.085 3.935-2.054-.362zm13.443 2.37l1.751-9.927 1.661.293-.737 4.178 4.702.829.737-4.178 1.654.292-1.75 9.927-1.655-.292.739-4.191-4.701-.83-.739 4.192-1.662-.293zm14.112 2.702c-.993-.175-1.805-.541-2.436-1.098a4.392 4.392 0 01-1.313-2.108c-.24-.843-.27-1.777-.089-2.802.181-1.025.528-1.892 1.042-2.602a4.346 4.346 0 011.953-1.526c.785-.311 1.674-.38 2.666-.205.993.175 1.805.544 2.436 1.105a4.293 4.293 0 011.314 2.101c.244.844.276 1.779.095 2.803-.18 1.025-.53 1.892-1.048 2.602a4.34 4.34 0 01-1.955 1.532c-.784.307-1.672.373-2.665.198zm.276-1.565c.666.122 1.245.073 1.739-.148.499-.22.906-.582 1.222-1.085.321-.503.545-1.117.673-1.844.129-.726.127-1.375-.004-1.948-.126-.577-.385-1.054-.779-1.43-.388-.378-.915-.63-1.58-.756-.665-.122-1.245-.072-1.739.148-.494.221-.901.583-1.222 1.086-.316.503-.538 1.118-.666 1.844s-.129 1.378-.003 1.954a2.76 2.76 0 00.772 1.423c.393.377.922.63 1.587.756zm6.579 2.56l.268-1.523 1.662.293-.269 1.523-1.661-.293zm.437-2.481l1.313-7.446 1.661.293-1.312 7.445-1.662-.292z" fill="#232340"/></svg>