<svg width="330" height="97" fill="none" xmlns="http://www.w3.org/2000/svg"><path fill="#ECF031" d="M6.946-39l542.63 95.68-6.947 39.392L0 .392z"/><path d="M79.4-.839l1.75-9.927 1.662.293-.737 4.178 4.702.829.736-4.178 1.655.292-1.75 9.927-1.655-.292.74-4.191-4.702-.83-.74 4.192-1.66-.293zm14.112 2.702c-.993-.175-1.805-.541-2.436-1.098a4.396 4.396 0 01-1.313-2.108c-.24-.843-.27-1.777-.09-2.802.182-1.025.529-1.893 1.043-2.603a4.35 4.35 0 011.953-1.525c.785-.312 1.674-.38 2.666-.205.993.175 1.805.543 2.436 1.105a4.292 4.292 0 011.314 2.1c.244.845.276 1.78.095 2.804C99-1.444 98.65-.577 98.132.132a4.336 4.336 0 01-1.955 1.532c-.784.308-1.672.374-2.665.199zm.276-1.565c.666.122 1.245.072 1.74-.149.497-.22.905-.581 1.221-1.085.32-.502.545-1.117.673-1.843s.127-1.376-.004-1.948a2.741 2.741 0 00-.779-1.431c-.388-.377-.915-.628-1.58-.755-.665-.122-1.245-.073-1.739.148-.494.221-.901.583-1.222 1.085-.316.504-.538 1.119-.666 1.845s-.13 1.377-.004 1.954a2.77 2.77 0 00.773 1.423c.393.377.922.629 1.587.756zm5.89 2.438l1.75-9.926 3.936.694c.671.118 1.196.35 1.576.697.385.343.644.741.777 1.196.138.455.167.906.088 1.352-.096.547-.309.988-.638 1.323a1.918 1.918 0 01-1.191.586l.061-.344c.6.252 1.021.632 1.263 1.14.247.507.32 1.048.219 1.623-.104.588-.308 1.083-.611 1.484a2.464 2.464 0 01-1.188.857c-.485.17-1.054.198-1.707.083l-4.336-.765zm1.957-1.268l2.447.432c.29.05.56.04.81-.035.251-.08.459-.213.625-.402.171-.192.283-.436.335-.73a1.495 1.495 0 00-.046-.747 1.284 1.284 0 00-.415-.592 1.564 1.564 0 00-.758-.333l-2.496-.44-.502 2.847zm.776-4.398l2.233.394c.239.042.461.034.666-.025.204-.059.378-.168.519-.328.142-.16.236-.37.283-.632.06-.345.001-.652-.179-.92-.18-.27-.468-.438-.863-.508l-2.234-.394-.425 2.413zm13.933 8.605l-1.682-.296 1.234-6.997-5.839 6.185-1.682-.297 1.75-9.927 1.683.297-1.234 6.997 5.838-6.185 1.683.296-1.751 9.927zm1.927.34l1.751-9.927 1.661.293-.737 4.178 4.702.829.736-4.178 1.655.292-1.75 9.927-1.655-.292.739-4.191-4.701-.83-.739 4.192-1.662-.293zm9.95 1.755l1.751-9.927 1.661.293-.812 4.605 4.776-3.906 2.04.36-5.125 4.114 3.665 5.863-2.11-.372-3.368-5.37-.816 4.632-1.662-.292zm8.238 1.452l4.88-9.375 2.433.43 1.38 10.478-1.71-.302-1.27-9.407.372.066-4.376 8.411-1.709-.301zm2.123-1.843l.273-1.551 5.212.919-.273 1.55-5.212-.918z" fill="#F03181"/><path d="M157.2 12.88l1.75-9.927 1.661.293-.736 4.177 4.701.83.737-4.178 1.654.292-1.75 9.927-1.654-.292.739-4.192-4.702-.829-.739 4.192-1.661-.293zm14.112 2.701c-.993-.175-1.805-.54-2.437-1.097a4.399 4.399 0 01-1.313-2.108c-.24-.844-.269-1.778-.089-2.802.181-1.025.528-1.893 1.042-2.603a4.355 4.355 0 011.954-1.525c.784-.312 1.673-.38 2.666-.205.993.175 1.804.543 2.435 1.104a4.293 4.293 0 011.314 2.102c.245.844.277 1.778.096 2.803-.181 1.025-.53 1.892-1.049 2.601a4.334 4.334 0 01-1.955 1.532c-.783.307-1.672.373-2.664.198zm.275-1.564c.666.122 1.246.072 1.74-.149.498-.22.905-.582 1.222-1.085.32-.503.545-1.117.673-1.843s.126-1.376-.005-1.949c-.126-.576-.385-1.053-.778-1.43-.389-.377-.915-.629-1.58-.755-.666-.122-1.245-.073-1.739.148-.494.22-.901.583-1.222 1.085-.316.504-.539 1.118-.667 1.845-.128.726-.129 1.377-.003 1.954.127.572.384 1.046.773 1.422.393.378.922.63 1.586.757zm5.89 2.438l1.75-9.927 3.936.694c.671.119 1.197.351 1.576.698.385.342.644.741.777 1.196.138.455.168.906.089 1.352-.096.547-.309.988-.638 1.323a1.918 1.918 0 01-1.191.586l.06-.345c.6.253 1.021.633 1.264 1.14.247.508.319 1.05.218 1.624-.104.588-.307 1.083-.61 1.484a2.462 2.462 0 01-1.189.857c-.485.17-1.054.198-1.706.083l-4.336-.765zm1.958-1.268l2.447.431c.29.051.559.04.809-.035.251-.079.46-.212.626-.401.171-.193.283-.436.334-.73a1.507 1.507 0 00-.045-.747 1.283 1.283 0 00-.415-.592 1.572 1.572 0 00-.759-.333l-2.495-.44-.502 2.847zm.775-4.398l2.234.394c.239.042.461.034.665-.025a1.08 1.08 0 00.52-.328c.142-.16.236-.37.282-.633a1.213 1.213 0 00-.179-.92c-.18-.268-.468-.437-.863-.507l-2.233-.394-.426 2.413zm13.934 8.605l-1.682-.297 1.233-6.997-5.838 6.185-1.682-.296 1.75-9.927 1.682.297-1.234 6.997 5.839-6.185 1.682.296-1.75 9.927zm1.927.34l1.75-9.927 1.662.293-.737 4.177 4.701.83.737-4.178 1.654.292-1.75 9.927-1.654-.292.739-4.192-4.702-.829-.739 4.192-1.661-.293zm9.95 1.754l1.75-9.927 1.662.293-.812 4.605 4.775-3.906 2.041.36-5.125 4.115 3.664 5.863-2.109-.372-3.368-5.37-.817 4.632-1.661-.293zm8.237 1.453l4.88-9.375 2.434.429 1.379 10.479-1.71-.302-1.269-9.407.372.065-4.376 8.412-1.71-.301zm2.124-1.844l.273-1.55 5.212.918-.274 1.551-5.211-.919z" fill="#232340"/><path d="M235 26.598l1.75-9.927 1.661.293-.736 4.177 4.701.83.737-4.178 1.654.291-1.75 9.927-1.655-.291.739-4.192-4.701-.829-.739 4.191-1.661-.292zm14.111 2.701c-.992-.175-1.804-.54-2.436-1.098a4.399 4.399 0 01-1.313-2.108c-.24-.843-.269-1.777-.089-2.802.181-1.024.528-1.892 1.042-2.602a4.35 4.35 0 011.954-1.525c.784-.312 1.673-.38 2.666-.205.992.175 1.804.543 2.435 1.104a4.293 4.293 0 011.314 2.101c.244.844.276 1.779.096 2.804-.181 1.024-.531 1.892-1.049 2.601a4.335 4.335 0 01-1.955 1.532c-.784.307-1.672.373-2.665.198zm.276-1.565c.666.122 1.246.073 1.739-.148.499-.22.906-.582 1.222-1.085.321-.503.546-1.117.674-1.843.128-.727.126-1.376-.005-1.949-.126-.576-.385-1.053-.778-1.43-.389-.377-.916-.629-1.58-.756-.666-.122-1.246-.072-1.739.149-.494.22-.902.582-1.222 1.085-.317.503-.539 1.118-.667 1.844s-.129 1.378-.003 1.954a2.76 2.76 0 00.772 1.423c.394.377.923.63 1.587.756zm5.89 2.439l1.75-9.927 3.936.694c.671.118 1.197.35 1.576.697.385.343.644.742.777 1.197.138.455.167.906.089 1.351-.097.547-.309.988-.639 1.324a1.913 1.913 0 01-1.191.586l.061-.345c.6.253 1.021.633 1.264 1.14a2.6 2.6 0 01.218 1.623c-.104.589-.307 1.083-.61 1.485a2.462 2.462 0 01-1.189.857c-.485.17-1.054.198-1.706.082l-4.336-.764zm1.958-1.268l2.447.431c.289.051.559.04.809-.035.251-.079.459-.213.625-.401.172-.193.283-.436.335-.73a1.495 1.495 0 00-.046-.748 1.274 1.274 0 00-.414-.592 1.573 1.573 0 00-.759-.332l-2.495-.44-.502 2.847zm.775-4.399l2.234.394c.239.043.46.034.665-.024a1.08 1.08 0 00.52-.328c.142-.16.236-.37.282-.633a1.213 1.213 0 00-.179-.92c-.18-.268-.468-.438-.863-.507l-2.233-.394-.426 2.412zm13.934 8.606l-1.683-.297 1.234-6.997-5.839 6.185-1.682-.296 1.751-9.927 1.682.296-1.234 6.997 5.839-6.185 1.682.297-1.75 9.927zm1.927.34l1.75-9.927 1.661.293-.736 4.177 4.701.83.737-4.178 1.654.291-1.75 9.927-1.655-.291.739-4.192-4.701-.829-.739 4.192-1.661-.293zm9.95 1.754l1.75-9.927 1.661.293-.812 4.605 4.776-3.906 2.041.36-5.126 4.114 3.665 5.864-2.11-.372-3.367-5.37-.817 4.632-1.661-.293zm8.237 1.452l4.88-9.375 2.434.43 1.379 10.478-1.71-.301-1.269-9.408.372.066-4.376 8.412-1.71-.302zm2.123-1.843l.274-1.55 5.211.918-.273 1.551-5.212-.919z" fill="#F03181"/><path d="M312.8 40.316l1.75-9.927 1.662.293-.737 4.178 4.701.829.737-4.178 1.655.292-1.751 9.927-1.654-.292.739-4.191-4.702-.83-.739 4.192-1.661-.293zm14.112 2.702c-.993-.175-1.805-.541-2.437-1.098a4.399 4.399 0 01-1.313-2.108c-.24-.843-.269-1.777-.088-2.802.18-1.025.528-1.892 1.041-2.602a4.354 4.354 0 011.954-1.526c.785-.311 1.673-.38 2.666-.205.993.175 1.804.544 2.435 1.105a4.293 4.293 0 011.314 2.101c.245.844.277 1.778.096 2.803-.181 1.025-.53 1.892-1.049 2.602a4.337 4.337 0 01-1.954 1.532c-.784.307-1.673.373-2.665.198zm.276-1.565c.665.122 1.245.073 1.739-.148.498-.22.906-.582 1.222-1.086.321-.502.545-1.117.673-1.843s.126-1.375-.005-1.948a2.735 2.735 0 00-.778-1.431c-.389-.377-.915-.628-1.58-.755-.666-.122-1.245-.072-1.739.149-.494.22-.901.582-1.222 1.085-.316.503-.539 1.118-.667 1.844s-.129 1.378-.003 1.954c.127.572.384 1.046.773 1.423.393.377.922.63 1.587.756zm5.889 2.439l1.75-9.927 3.937.694c.671.118 1.196.35 1.575.697.385.343.644.742.778 1.196.137.456.167.906.088 1.352-.096.547-.309.988-.638 1.323a1.917 1.917 0 01-1.191.587l.061-.345c.599.252 1.021.632 1.263 1.14.247.508.319 1.049.218 1.623-.104.588-.307 1.083-.61 1.485a2.461 2.461 0 01-1.189.856c-.485.17-1.053.198-1.706.083l-4.336-.764zm1.958-1.269l2.447.432c.29.051.559.04.809-.035.251-.079.46-.213.626-.402a1.45 1.45 0 00.335-.73 1.507 1.507 0 00-.046-.747 1.284 1.284 0 00-.415-.592 1.572 1.572 0 00-.759-.333l-2.495-.44-.502 2.847zm.775-4.398l2.234.394c.239.042.461.034.665-.025a1.08 1.08 0 00.52-.327 1.26 1.26 0 00.282-.633 1.213 1.213 0 00-.179-.92c-.18-.269-.467-.438-.863-.508l-2.233-.394-.426 2.413zm13.934 8.605l-1.682-.296 1.234-6.997-5.839 6.185-1.682-.297 1.75-9.926 1.682.296-1.234 6.997 5.839-6.185 1.682.297-1.75 9.926zm1.927.34l1.75-9.927 1.662.293-.737 4.178 4.701.829.737-4.178 1.655.292-1.751 9.927-1.654-.292.739-4.191-4.702-.83-.739 4.192-1.661-.293zm9.95 1.755l1.75-9.927 1.662.293-.812 4.605 4.776-3.906 2.04.36-5.125 4.114 3.664 5.864-2.109-.372-3.368-5.37-.817 4.632-1.661-.293zm8.237 1.452l4.88-9.375 2.434.43 1.379 10.478-1.709-.301-1.27-9.408.372.066-4.376 8.412-1.71-.302zm2.124-1.843l.273-1.551 5.212.919-.274 1.55-5.211-.918z" fill="#232340"/></svg>