<svg width="257" height="64" fill="none" xmlns="http://www.w3.org/2000/svg"><path d="M63.068 0H.932A.931.931 0 000 .932v62.136c0 .515.417.932.932.932h62.136a.932.932 0 00.932-.932V.932A.932.932 0 0063.068 0zm-.931 62.136H1.862V1.864h60.273v60.272z" fill="#fff"/><path d="M21.086 11.077c-.152-.293-.453-.621-.907-.988-.604-.513-1.586-.769-2.945-.769H9.559l-1.672.165c-1.113.292-1.67 1.17-1.67 2.635v4.967h1.784v-1.154h9.516c1.265 0 2.233-.37 2.903-1.111.67-.741.995-1.477.977-2.21 0-.64-.104-1.152-.311-1.536zm-2.323 2.799a1.913 1.913 0 01-.693.329 3.548 3.548 0 01-.807.082h-9.26v-1.839c0-.366.017-.622.056-.77.133-.474.547-.712 1.246-.712h7.959c.887 0 1.491.188 1.812.563.32.375.482.754.482 1.138 0 .44-.265.842-.794 1.208v.001zm12.762 2.553c0 .33-.16.496-.48.496H24.09a1.42 1.42 0 01-1.058-.439 1.466 1.466 0 01-.43-1.065v-3.156h1.042v1.156c0 .342.187.512.562.512h5.14c.33 0 .496.166.496.497 0 .33-.16.496-.48.496h-5.09c-.396 0-.594.17-.594.512 0 .33.187.495.562.495h6.776c.341 0 .512.165.512.496h-.002zM99.23 28.713c-.226-.452-.677-.96-1.354-1.527-.904-.79-2.373-1.186-4.405-1.186H81.996l-2.499.254C77.832 26.705 77 28.063 77 30.325V38h2.667v-1.78h14.229c1.89 0 3.338-.572 4.34-1.717 1.002-1.145 1.489-2.283 1.46-3.414 0-.99-.155-1.78-.466-2.375v-.001zm-3.472 4.326a2.83 2.83 0 01-1.038.508 5.18 5.18 0 01-1.207.128H79.667v-2.841c0-.566.029-.961.085-1.189.197-.734.82-1.101 1.863-1.101h11.9c1.326 0 2.23.29 2.71.87.479.578.72 1.165.72 1.759 0 .678-.396 1.3-1.187 1.866zm29.429 3.684c0 .853-.409 1.277-1.227 1.277h-17.827c-1.074 0-1.976-.376-2.711-1.128-.733-.752-1.1-1.667-1.1-2.744V26h2.668v8.17c0 .852.508 1.277 1.525 1.277h17.361c.875 0 1.311.426 1.311 1.276zM150.508 38h-2.667v-7.132c0-.91-.148-1.52-.446-1.835-.296-.312-.797-.47-1.502-.47h-11.9c-1.214 0-2.089.271-2.626.812-.536.54-.804 1.423-.804 2.646-.029 2.222 1.116 3.36 3.43 3.416h10.713c.847 0 1.271.427 1.271 1.28 0 .856-.409 1.282-1.227 1.282h-11.137c-2.118-.113-3.543-.669-4.277-1.665-1.016-1.167-1.525-2.62-1.525-4.356 0-3.189 1.202-5.082 3.601-5.679.705-.198 1.58-.299 2.624-.299h11.519c.621.03 1.44.114 2.456.256 1.665.456 2.498 1.822 2.498 4.1v7.643l-.001.001zm25.49-10.724c0 .853-.437 1.277-1.313 1.277h-8.722V38h-2.668v-9.447h-8.85c-.875 0-1.312-.425-1.312-1.277 0-.85.409-1.276 1.226-1.276h20.411c.819 0 1.228.426 1.228 1.276zm5.165 9.485c0 .826-.424 1.239-1.271 1.239-.82 0-1.243-.427-1.27-1.281v-9.48c0-.825.423-1.239 1.27-1.239.846 0 1.271.428 1.271 1.28v9.481zm25.277-6.931V38h-2.709v-8.17c0-.68-.353-1.107-1.059-1.276h-14.694c-1.016 0-1.524.425-1.524 1.276V38h-2.667v-8.17a3.73 3.73 0 011.1-2.702c.734-.751 1.638-1.128 2.711-1.128h15.032c1.045 0 1.94.376 2.69 1.128.748.753 1.122 1.654 1.122 2.701h-.002zM231.72 38h-18.843c-1.072 0-1.977-.376-2.711-1.128-.733-.752-1.1-1.667-1.1-2.744V26h2.668v8.17c0 .852.509 1.277 1.524 1.277h14.694c.706-.17 1.059-.595 1.059-1.277V26h2.709v12zM257 29.83v8.169h-2.71v-8.17c0-.652-.353-1.063-1.06-1.234h-4.911c-.875 0-1.314.51-1.314 1.533v7.871l-2.541-.043v-7.999c0-.963-.422-1.445-1.27-1.445h-1.82v.041h-2.837c-1.017 0-1.525.426-1.525 1.277V38h-2.668v-8.17c0-1.049.367-1.95 1.1-2.702.735-.751 1.638-1.128 2.711-1.128h4.997c.988 0 1.849.327 2.582.98a3.768 3.768 0 012.584-.98h4.87c1.044 0 1.94.376 2.689 1.128.748.752 1.122 1.653 1.122 2.702H257z" fill="#fff"/></svg>